<svg xmlns="http://www.w3.org/2000/svg" version="1.1" xmlns:xlink="http://www.w3.org/1999/xlink" xmlns:svgjs="http://svgjs.dev/svgjs" viewBox="0 0 15.038654914395785 3.6581233157838033"><g transform="matrix(1,0,0,1,3.455612757347437,0.8050598828919016)"><rect width="15.038654914395785" height="3.6581233157838033" x="-3.455612757347437" y="-0.8050598828919014" fill="#ffffff"></rect><g><path d=" M 0.17751000000000003 0.007274999999999698 L 0.251715 0.007274999999999698 L 0.251715 1.0257749999999999 L 0.17751000000000003 1.0257749999999999 L 0.17751000000000003 0.007274999999999698 Z M 1.604549134277344 1.0257749999999999 L 1.603094134277344 0.15422999999999976 L 1.1767791342773437 0.8904599999999998 L 1.1404041342773437 0.8904599999999998 L 0.7140891342773438 0.15713999999999984 L 0.7140891342773438 1.0257749999999999 L 0.6413391342773438 1.0257749999999999 L 0.6413391342773438 0.007274999999999698 L 0.7039041342773438 0.007274999999999698 L 1.159319134277344 0.7944299999999999 L 1.6147341342773438 0.007274999999999698 L 1.6758441342773438 0.007274999999999698 L 1.6772991342773438 1.0257749999999999 L 1.604549134277344 1.0257749999999999 Z M 2.6969538984375 0.7391399999999999 L 2.1062238984375 0.7391399999999999 L 1.9767288984375 1.0257749999999999 L 1.8967038984375 1.0257749999999999 L 2.3652138984375 0.007274999999999698 L 2.4394188984375003 0.007274999999999698 L 2.9079288984375005 1.0257749999999999 L 2.8279038984375 1.0257749999999999 L 2.6969538984375 0.7391399999999999 Z M 2.6693088984375 0.6765749999999999 L 2.4015888984375002 0.0887549999999998 L 2.1353238984375 0.6765749999999999 L 2.6693088984375 0.6765749999999999 Z M 3.8402147490234375 0.5208899999999999 L 3.9115097490234376 0.5208899999999999 L 3.9115097490234376 0.9020999999999999 Q 3.8445797490234375 0.9661199999999999 3.7492772490234376 0.9995849999999998 Q 3.6539747490234378 1.0330499999999998 3.5477597490234376 1.0330499999999998 Q 3.396439749023438 1.0330499999999998 3.2749472490234375 0.9661199999999999 Q 3.1534547490234375 0.8991899999999999 3.084342249023438 0.7813349999999999 Q 3.0152297490234377 0.6634799999999998 3.0152297490234377 0.5165249999999998 Q 3.0152297490234377 0.36956999999999984 3.084342249023438 0.2517149999999998 Q 3.1534547490234375 0.13385999999999976 3.2749472490234375 0.06692999999999982 Q 3.396439749023438 -2.220446049250313e-16 3.5492147490234376 -2.220446049250313e-16 Q 3.6612497490234377 -2.220446049250313e-16 3.7550972490234376 0.03564749999999983 Q 3.848944749023438 0.07129499999999978 3.9158747490234376 0.1396799999999998 L 3.8693147490234376 0.18914999999999982 Q 3.805294749023438 0.12512999999999985 3.725997249023438 0.09675749999999983 Q 3.646699749023438 0.06838499999999981 3.5506697490234376 0.06838499999999981 Q 3.4197197490234377 0.06838499999999981 3.3142322490234375 0.12658499999999984 Q 3.2087447490234378 0.18478499999999976 3.1490897490234375 0.28736249999999985 Q 3.0894347490234377 0.38993999999999984 3.0894347490234377 0.5165249999999998 Q 3.0894347490234377 0.6416549999999999 3.1498172490234375 0.7442324999999999 Q 3.2101997490234377 0.8468099999999998 3.3149597490234375 0.9057374999999999 Q 3.4197197490234377 0.9646649999999999 3.5506697490234376 0.9646649999999999 Q 3.725269749023438 0.9646649999999999 3.8402147490234375 0.8715449999999999 L 3.8402147490234375 0.5208899999999999 Z M 4.271984862304688 0.007274999999999698 L 4.346189862304688 0.007274999999999698 L 4.346189862304688 1.0257749999999999 L 4.271984862304688 1.0257749999999999 L 4.271984862304688 0.007274999999999698 Z M 5.565163996582031 0.007274999999999698 L 5.565163996582031 1.0257749999999999 L 5.504053996582032 1.0257749999999999 L 4.8100189965820315 0.1411349999999998 L 4.8100189965820315 1.0257749999999999 L 4.735813996582031 1.0257749999999999 L 4.735813996582031 0.007274999999999698 L 4.798378996582032 0.007274999999999698 L 5.490958996582032 0.8919149999999999 L 5.490958996582032 0.007274999999999698 L 5.565163996582031 0.007274999999999698 Z M 6.584776844238282 0.7391399999999999 L 5.994046844238282 0.7391399999999999 L 5.864551844238282 1.0257749999999999 L 5.784526844238282 1.0257749999999999 L 6.253036844238282 0.007274999999999698 L 6.327241844238282 0.007274999999999698 L 6.795751844238282 1.0257749999999999 L 6.715726844238282 1.0257749999999999 L 6.584776844238282 0.7391399999999999 Z M 6.557131844238282 0.6765749999999999 L 6.289411844238281 0.0887549999999998 L 6.023146844238282 0.6765749999999999 L 6.557131844238282 0.6765749999999999 Z M 7.722231903808594 1.0257749999999999 L 7.479246903808594 0.6853049999999998 Q 7.425411903808594 0.6925799999999999 7.380306903808594 0.6925799999999999 L 7.089306903808594 0.6925799999999999 L 7.089306903808594 1.0257749999999999 L 7.015101903808594 1.0257749999999999 L 7.015101903808594 0.007274999999999698 L 7.380306903808594 0.007274999999999698 Q 7.572366903808594 0.007274999999999698 7.681491903808594 0.09821249999999981 Q 7.790616903808594 0.18914999999999982 7.790616903808594 0.35065499999999983 Q 7.790616903808594 0.47141999999999984 7.728779403808594 0.5536274999999998 Q 7.666941903808594 0.6358349999999999 7.551996903808594 0.6692999999999998 L 7.806621903808594 1.0257749999999999 L 7.722231903808594 1.0257749999999999 Z M 7.380306903808594 0.6271049999999998 Q 7.543266903808594 0.6271049999999998 7.629111903808594 0.5550824999999998 Q 7.714956903808594 0.4830599999999998 7.714956903808594 0.35065499999999983 Q 7.714956903808594 0.21824999999999983 7.629111903808594 0.14622749999999984 Q 7.543266903808594 0.07420499999999974 7.380306903808594 0.07420499999999974 L 7.089306903808594 0.07420499999999974 L 7.089306903808594 0.6271049999999998 L 7.380306903808594 0.6271049999999998 Z M 8.397004067871094 0.6751199999999998 L 8.397004067871094 1.0257749999999999 L 8.322799067871093 1.0257749999999999 L 8.322799067871093 0.6751199999999998 L 7.9124890678710935 0.007274999999999698 L 7.9939690678710935 0.007274999999999698 L 8.362084067871093 0.6067349999999998 L 8.730199067871094 0.007274999999999698 L 8.807314067871093 0.007274999999999698 L 8.397004067871094 0.6751199999999998 Z" fill="#000000" fill-rule="nonzero"></path></g><g><path d=" M 0.087894 1.50830355 L 0.144948 1.50830355 L 0.144948 2.04800355 L 0.087894 2.04800355 L 0.087894 1.50830355 Z M 0.8889174477539062 1.50830355 L 0.8889174477539062 2.04800355 L 0.8341764477539063 2.04800355 L 0.8341764477539063 1.6162435499999999 L 0.6221514477539063 1.9793845499999998 L 0.5951664477539063 1.9793845499999998 L 0.38314144775390624 1.6185565499999999 L 0.38314144775390624 2.04800355 L 0.32840044775390625 2.04800355 L 0.32840044775390625 1.50830355 L 0.37543144775390624 1.50830355 L 0.6098154477539063 1.9084525499999998 L 0.8418864477539063 1.50830355 L 0.8889174477539062 1.50830355 Z M 1.4108505659179689 1.9038265499999998 L 1.1101605659179687 1.9038265499999998 L 1.045396565917969 2.04800355 L 0.9860295659179689 2.04800355 L 1.2327495659179688 1.50830355 L 1.2890325659179689 1.50830355 L 1.535752565917969 2.04800355 L 1.4756145659179687 2.04800355 L 1.4108505659179689 1.9038265499999998 Z M 1.3900335659179688 1.8575665499999998 L 1.2605055659179687 1.5676705499999999 L 1.1309775659179688 1.8575665499999998 L 1.3900335659179688 1.8575665499999998 Z M 2.0052686015625003 1.7781535499999999 L 2.0600096015625002 1.7781535499999999 L 2.0600096015625002 1.9840105499999998 Q 2.0222306015625002 2.01716355 1.9705736015625002 2.0348965499999996 Q 1.9189166015625 2.05262955 1.8618626015625002 2.05262955 Q 1.7809076015625 2.05262955 1.7161436015625 2.01716355 Q 1.6513796015625002 1.9816975499999998 1.6143716015625 1.9188610499999998 Q 1.5773636015625 1.8560245499999999 1.5773636015625 1.7781535499999999 Q 1.5773636015625 1.7002825499999998 1.6143716015625 1.6374460499999999 Q 1.6513796015625002 1.57460955 1.7161436015625 1.53914355 Q 1.7809076015625 1.50367755 1.8626336015625 1.50367755 Q 1.9243136015625 1.50367755 1.9759706015625 1.5233380499999998 Q 2.0276276015625 1.5429985499999996 2.0630936015625 1.5815485499999997 L 2.0276276015625 1.6177855499999998 Q 1.9636346015625001 1.5545635499999997 1.8649466015625 1.5545635499999997 Q 1.7994116015625001 1.5545635499999997 1.7465981015625 1.5834760499999998 Q 1.6937846015625 1.61238855 1.6637156015625 1.6636600499999998 Q 1.6336466015625002 1.7149315499999997 1.6336466015625002 1.7781535499999999 Q 1.6336466015625002 1.8413755499999998 1.6637156015625 1.8922615499999997 Q 1.6937846015625 1.9431475499999997 1.7462126015625001 1.9724455499999998 Q 1.7986406015625 2.0017435499999996 1.8641756015625002 2.0017435499999996 Q 1.9474436015625 2.0017435499999996 2.0052686015625003 1.9601095499999999 L 2.0052686015625003 1.7781535499999999 Z M 2.2288194492187503 1.50830355 L 2.2858734492187502 1.50830355 L 2.2858734492187502 2.04800355 L 2.2288194492187503 2.04800355 L 2.2288194492187503 1.50830355 Z M 2.9203608969726567 1.50830355 L 2.9203608969726567 2.04800355 L 2.8733298969726566 2.04800355 L 2.5263798969726565 1.61007555 L 2.5263798969726565 2.04800355 L 2.4693258969726566 2.04800355 L 2.4693258969726566 1.50830355 L 2.5163568969726566 1.50830355 L 2.8640778969726566 1.9462315499999998 L 2.8640778969726566 1.50830355 L 2.9203608969726567 1.50830355 Z M 3.4854948618164068 1.9986595499999997 L 3.4854948618164068 2.04800355 L 3.1038498618164065 2.04800355 L 3.1038498618164065 1.50830355 L 3.4739298618164067 1.50830355 L 3.4739298618164067 1.5576475499999998 L 3.1609038618164065 1.5576475499999998 L 3.1609038618164065 1.74962655 L 3.4400058618164064 1.74962655 L 3.4400058618164064 1.7981995499999999 L 3.1609038618164065 1.7981995499999999 L 3.1609038618164065 1.9986595499999997 L 3.4854948618164068 1.9986595499999997 Z M 3.941856086425782 1.5576475499999998 L 3.752190086425782 1.5576475499999998 L 3.752190086425782 1.50830355 L 4.1885760864257815 1.50830355 L 4.1885760864257815 1.5576475499999998 L 3.998910086425782 1.5576475499999998 L 3.998910086425782 2.04800355 L 3.941856086425782 2.04800355 L 3.941856086425782 1.5576475499999998 Z M 4.738279510253907 1.50830355 L 4.738279510253907 2.04800355 L 4.6819965102539065 2.04800355 L 4.6819965102539065 1.7989705499999997 L 4.344298510253907 1.7989705499999997 L 4.344298510253907 2.04800355 L 4.287244510253907 2.04800355 L 4.287244510253907 1.50830355 L 4.344298510253907 1.50830355 L 4.344298510253907 1.7488555499999998 L 4.6819965102539065 1.7488555499999998 L 4.6819965102539065 1.50830355 L 4.738279510253907 1.50830355 Z M 5.303413475097657 1.9986595499999997 L 5.303413475097657 2.04800355 L 4.921768475097657 2.04800355 L 4.921768475097657 1.50830355 L 5.291848475097657 1.50830355 L 5.291848475097657 1.5576475499999998 L 4.978822475097657 1.5576475499999998 L 4.978822475097657 1.74962655 L 5.257924475097657 1.74962655 L 5.257924475097657 1.7981995499999999 L 4.978822475097657 1.7981995499999999 L 4.978822475097657 1.9986595499999997 L 5.303413475097657 1.9986595499999997 Z M 5.708888699707032 1.9924915499999998 Q 5.650292699707032 1.9323535499999998 5.650292699707032 1.8174745499999998 L 5.650292699707032 1.50830355 L 5.707346699707032 1.50830355 L 5.707346699707032 1.8151615499999998 Q 5.707346699707032 1.9092235499999999 5.749751699707032 1.9554835499999998 Q 5.792156699707032 2.0017435499999996 5.872340699707032 2.0017435499999996 Q 5.953295699707032 2.0017435499999996 5.995700699707032 1.9554835499999998 Q 6.038105699707032 1.9092235499999999 6.038105699707032 1.8151615499999998 L 6.038105699707032 1.50830355 L 6.093617699707032 1.50830355 L 6.093617699707032 1.8174745499999998 Q 6.093617699707032 1.9323535499999998 6.0354071997070315 1.9924915499999998 Q 5.977196699707032 2.05262955 5.872340699707032 2.05262955 Q 5.7674846997070315 2.05262955 5.708888699707032 1.9924915499999998 Z M 6.724289676269532 1.50830355 L 6.724289676269532 2.04800355 L 6.677258676269532 2.04800355 L 6.330308676269532 1.61007555 L 6.330308676269532 2.04800355 L 6.2732546762695325 2.04800355 L 6.2732546762695325 1.50830355 L 6.320285676269532 1.50830355 L 6.668006676269532 1.9462315499999998 L 6.668006676269532 1.50830355 L 6.724289676269532 1.50830355 Z M 6.907778641113282 1.50830355 L 6.964832641113282 1.50830355 L 6.964832641113282 2.04800355 L 6.907778641113282 2.04800355 L 6.907778641113282 1.50830355 Z M 7.708802088867188 1.50830355 L 7.708802088867188 2.04800355 L 7.654061088867188 2.04800355 L 7.654061088867188 1.6162435499999999 L 7.442036088867187 1.9793845499999998 L 7.4150510888671874 1.9793845499999998 L 7.203026088867188 1.6185565499999999 L 7.203026088867188 2.04800355 L 7.148285088867188 2.04800355 L 7.148285088867188 1.50830355 L 7.195316088867187 1.50830355 L 7.429700088867188 1.9084525499999998 L 7.661771088867187 1.50830355 L 7.708802088867188 1.50830355 Z M 8.23073520703125 1.9038265499999998 L 7.93004520703125 1.9038265499999998 L 7.8652812070312494 2.04800355 L 7.8059142070312495 2.04800355 L 8.05263420703125 1.50830355 L 8.108917207031249 1.50830355 L 8.35563720703125 2.04800355 L 8.29549920703125 2.04800355 L 8.23073520703125 1.9038265499999998 Z M 8.209918207031249 1.8575665499999998 L 8.08039020703125 1.5676705499999999 L 7.95086220703125 1.8575665499999998 L 8.209918207031249 1.8575665499999998 Z M 8.825153242675782 1.7781535499999999 L 8.879894242675782 1.7781535499999999 L 8.879894242675782 1.9840105499999998 Q 8.842115242675781 2.01716355 8.790458242675781 2.0348965499999996 Q 8.738801242675782 2.05262955 8.681747242675781 2.05262955 Q 8.600792242675782 2.05262955 8.536028242675782 2.01716355 Q 8.471264242675781 1.9816975499999998 8.434256242675781 1.9188610499999998 Q 8.397248242675781 1.8560245499999999 8.397248242675781 1.7781535499999999 Q 8.397248242675781 1.7002825499999998 8.434256242675781 1.6374460499999999 Q 8.471264242675781 1.57460955 8.536028242675782 1.53914355 Q 8.600792242675782 1.50367755 8.682518242675782 1.50367755 Q 8.74419824267578 1.50367755 8.795855242675781 1.5233380499999998 Q 8.847512242675782 1.5429985499999996 8.882978242675781 1.5815485499999997 L 8.847512242675782 1.6177855499999998 Q 8.783519242675782 1.5545635499999997 8.68483124267578 1.5545635499999997 Q 8.619296242675782 1.5545635499999997 8.566482742675781 1.5834760499999998 Q 8.513669242675782 1.61238855 8.48360024267578 1.6636600499999998 Q 8.453531242675782 1.7149315499999997 8.453531242675782 1.7781535499999999 Q 8.453531242675782 1.8413755499999998 8.48360024267578 1.8922615499999997 Q 8.513669242675782 1.9431475499999997 8.56609724267578 1.9724455499999998 Q 8.618525242675782 2.0017435499999996 8.684060242675782 2.0017435499999996 Q 8.76732824267578 2.0017435499999996 8.825153242675782 1.9601095499999999 L 8.825153242675782 1.7781535499999999 Z M 9.048704090332032 1.50830355 L 9.105758090332031 1.50830355 L 9.105758090332031 2.04800355 L 9.048704090332032 2.04800355 L 9.048704090332032 1.50830355 Z M 9.740245538085938 1.50830355 L 9.740245538085938 2.04800355 L 9.69321453808594 2.04800355 L 9.346264538085938 1.61007555 L 9.346264538085938 2.04800355 L 9.289210538085939 2.04800355 L 9.289210538085939 1.50830355 L 9.33624153808594 1.50830355 L 9.68396253808594 1.9462315499999998 L 9.68396253808594 1.50830355 L 9.740245538085938 1.50830355 Z M 10.305379502929688 1.9986595499999997 L 10.305379502929688 2.04800355 L 9.923734502929689 2.04800355 L 9.923734502929689 1.50830355 L 10.293814502929688 1.50830355 L 10.293814502929688 1.5576475499999998 L 9.980788502929688 1.5576475499999998 L 9.980788502929688 1.74962655 L 10.259890502929688 1.74962655 L 10.259890502929688 1.7981995499999999 L 9.980788502929688 1.7981995499999999 L 9.980788502929688 1.9986595499999997 L 10.305379502929688 1.9986595499999997 Z M 10.447201338867188 1.50830355 L 10.666936338867188 1.50830355 Q 10.752517338867188 1.50830355 10.818052338867188 1.54261305 Q 10.883587338867187 1.57692255 10.919824338867189 1.6382170499999997 Q 10.956061338867189 1.6995115499999998 10.956061338867189 1.7781535499999999 Q 10.956061338867189 1.8567955499999997 10.919824338867189 1.9180900499999998 Q 10.883587338867187 1.9793845499999998 10.818052338867188 2.01369405 Q 10.752517338867188 2.04800355 10.666936338867188 2.04800355 L 10.447201338867188 2.04800355 L 10.447201338867188 1.50830355 Z M 10.663852338867187 1.9986595499999997 Q 10.734784338867188 1.9986595499999997 10.787983338867187 1.9705180499999997 Q 10.841182338867188 1.9423765499999999 10.870480338867187 1.8926470499999999 Q 10.899778338867188 1.8429175499999997 10.899778338867188 1.7781535499999999 Q 10.899778338867188 1.7133895499999998 10.870480338867187 1.6636600499999998 Q 10.841182338867188 1.6139305499999999 10.787983338867187 1.5857890499999998 Q 10.734784338867188 1.5576475499999998 10.663852338867187 1.5576475499999998 L 10.504255338867187 1.5576475499999998 L 10.504255338867187 1.9986595499999997 L 10.663852338867187 1.9986595499999997 Z" fill="#000000" fill-rule="nonzero"></path></g><g clip-path="url(&quot;#SvgjsClipPath1010&quot;)"><g clip-path="url(&quot;#SvgjsClipPath1008&quot;)"><path d=" M -0.6704311077666159 0.7546103885179947 C -0.6661819275485383 0.8034361249613382 -0.6586396326614516 0.836699238855974 -0.6466144526442932 0.8651289102525468 C -0.6181980599359016 0.9323031380250753 -0.5647168154161273 0.9724924156751771 -0.4704726539168105 1.127316608396093 C -0.3938360329461519 1.2531985723566308 -0.35997006660807607 1.2454438184586398 -0.4721723260040416 1.313329783917696 C -0.563718258064879 1.3523239796314637 -0.5907749131034858 1.3342277833777274 -0.5921824540507239 1.4257338793740202 C -0.5896754377220583 1.4638490259301729 -0.5641617662501406 1.5051404346993382 -0.5616414712332936 1.5432423025673097 C -0.5580721598501088 1.5974193503477943 -0.6308181251835911 1.603331022326194 -0.6324912398944589 1.628998726581017 C -0.6350221578618509 1.667599873124612 -0.5327789146020039 1.6587907913850108 -0.5964820932838903 1.7127261670405924 C -0.6261466826813424 1.7378414778670652 -0.6130910764612998 1.8223231478153494 -0.6133460272743849 1.8907774411285734 C -0.6139223223414616 2.0444304535518816 -0.7494632040852158 1.9734372750583569 -0.8927057249742354 1.9759044553224776 C -0.9393723467192687 1.976701176613367 -0.9828680177265618 1.9795082912949347 -1.0234025412693821 1.9840761600293673 C -1.254850076272776 2.010190028207088 -1.4604652512878964 2.111609992799683 -1.6324056730747551 2.266165956019333 C -1.5973074444734372 2.0845135016965317 -1.4601757758855398 1.9315430138457514 -1.3215728286471335 1.7751997391968728 C -1.299941845599484 1.7508067890074734 -1.2818828296726557 1.7235509536461442 -1.258743387647589 1.7015003640519597 C -0.712256319800677 1.1806836561975067 -0.6436294035410937 -0.142256112898656 -1.9687389102861124 0.1360359782714029 C -1.5111845286659207 -0.09035768801011532 -0.7347158929908519 0.014806866649659661 -0.6704311077666159 0.7546103885179947 Z" fill="#000000" transform="matrix(1,0,0,1,0,0)" fill-rule="evenodd"></path></g><g clip-path="url(&quot;#SvgjsClipPath1008&quot;)"><path d=" M -1.8482773068412597 0.3417600385296117 L -1.7015185893217812 0.5959380319620822 L -1.5547678390152115 0.8501133696569163 L -1.848264028153078 0.8501133696569163 L -2.1417681845038534 0.8501133696569163 L -1.9950147784596475 0.5959380319620822 L -1.848264028153078 0.34176003852961157 Z M -1.263282043268023 0.9143025483262457 L -1.1587229967893238 0.733207798907067 L -1.0541745732611703 0.5521130494878883 L -1.2632820432680232 0.5521130494878883 L -1.4723948247501486 0.5521130494878883 L -1.3678437454843584 0.733207798907067 L -1.2632820432680232 0.9143025483262457 Z M -2.3391426056335405 1.0022632345780804 L -2.27496139417712 0.8910967128602716 L -2.2107748712454276 0.7799381583553714 L -2.3391426056335405 0.7799381583553714 L -2.4675023728087444 0.7799381583553714 L -2.403326472827597 0.8910967128602716 L -2.3391426056335405 1.0022632345780804 Z M -2.047170809898909 -0.218162406019333 L -1.9829869427048528 -0.10699588430152396 L -1.9188030755107963 0.0041706374162850945 L -2.1755358885493856 0.0041706374162850945 L -2.111352021355329 -0.10699588430152396 L -2.047170809898909 -0.218162406019333 Z M -2.5998298120125782 0.013481653569146823 L -2.5356512562937943 0.12464817528695588 L -2.471467389099738 0.23581469700476498 L -2.7282108250888726 0.23581469700476498 L -2.664026957894816 0.12464817528695588 L -2.5998404349631232 0.013481653569146795 Z M -2.064781006165203 1.0644632657578221 L -2.0005997947087826 1.1756324432132674 L -1.9364159275147261 1.2867989649310763 L -2.193148740553316 1.2867989649310763 L -2.1289728405721684 1.1756324432132674 L -2.0647916291157484 1.064463265757822 Z M -1.2150113559906657 0.28345331872468316 L -1.1548084395134204 0.3877308570139345 L -1.0946108345114474 0.492000428090277 L -1.3354198446827927 0.492000428090277 L -1.2752169282055474 0.3877308570139345 L -1.215011355990666 0.28345331872468316 Z M -1.5651305272720473 0.23618118879857403 L -1.62532813227402 0.34045607135018907 L -1.6855390159641745 0.4447282981641679 L -1.4447300057928294 0.4447282981641679 L -1.5049276107948024 0.34045607135018907 L -1.5651305272720473 0.23618118879857414 Z M -2.6519805319765672 1.0208879226214402 L -2.7603346275375364 0.8331856979631513 L -2.8687152804748686 0.6454834733048626 L -2.6519805319765672 0.6454834733048626 L -2.4352431277406295 0.6454834733048626 L -2.5436158134650526 0.8331803864878788 L -2.651969909026022 1.0208826111461675 Z M -2.2725021811259083 0.056308078692092645 L -2.3808562766868775 0.24400499187510882 L -2.489226306673664 0.4316965935828523 L -2.055756809677061 0.4316965935828523 L -2.1641109052380307 0.24399436892456355 L -2.2725021811259083 0.056308078692092645 Z M -1.438281874811897 0.8566358612916649 L -1.3299091890874737 1.044332774474681 L -1.2215550935265045 1.2320323433953335 L -1.4382924977624423 1.2320323433953335 L -1.6550245905231074 1.2320323433953335 L -1.5466704949621382 1.044332774474681 L -1.4383031207129875 0.8566358612916647 Z M -1.7411660964940776 1.1754279514152723 L -1.6769848850376574 1.064258773959827 L -1.6128169522694191 0.9530949079796545 L -1.869525863669282 0.9530949079796545 L -1.8053579309010432 1.064258773959827 Z" fill="#000000" transform="matrix(1,0,0,1,0,0)" fill-rule="evenodd"></path></g></g></g><defs><clipPath id="SvgjsClipPath1010"><path d=" M -2.8687152804748686 -0.218162406019333 h 2.4687152804748687 v 2.484328362038666 h -2.4687152804748687 Z"></path></clipPath><clipPath id="SvgjsClipPath1008"><path d=" M -2.8687152804748686 -0.218162406019333 L -0.3999999999999999 -0.218162406019333 L -0.3999999999999999 2.266165956019333 L -2.8687152804748686 2.266165956019333 Z"></path></clipPath></defs></svg>